inDegrees=yes
name=ik_S52_A10_T01
DataType=double
version=3
OpenSimVersion=4.3-2021-08-27-4bc7ad9
endheader
time	pelvis_tilt	pelvis_list	pelvis_rotation	pelvis_tx	pelvis_ty	pelvis_tz	hip_flexion_r	hip_adduction_r	hip_rotation_r	knee_angle_r	knee_angle_r_beta	ankle_angle_r	subtalar_angle_r	mtp_angle_r	hip_flexion_l	hip_adduction_l	hip_rotation_l	knee_angle_l	knee_angle_l_beta	ankle_angle_l	subtalar_angle_l	mtp_angle_l	lumbar_extension	lumbar_bending	lumbar_rotation	arm_flex_r	arm_add_r	arm_rot_r	elbow_flex_r	pro_sup_r	wrist_flex_r	wrist_dev_r	arm_flex_l	arm_add_l	arm_rot_l	elbow_flex_l	pro_sup_l	wrist_flex_l	wrist_dev_l
13.25999999999981	-1.413156884582517	-0.3917837536387594	26.52338610455177	0	0.9399999999999999	0	44.52321581370451	-9.999806426980227	-9.996640304876466	54.02920403411969	0.9429875026271913	0	0	0	44.52321581370451	-9.999806426980227	-9.996640304876466	54.02920403411969	0.9429875026271913	0	0	0	-1.325557659173805	-0.105962967222569	0.7601349881752849	19.93642237349988	-0.296029478498209	5.812238193827516	8.152784295200881	97.94023130398008	0	0	13.22111295202912	-3.462954106657106	5.546333949582029	21.6945310916914	91.69483014635422	0	0
13.27999999999981	-1.366028464823349	-0.3336213535695402	26.52705352443987	0	0.9399999999999999	0	44.52341867631421	-9.99980671395892	-9.996643502773626	54.02948120456954	0.9429923401641304	0	0	0	44.52341867631421	-9.99980671395892	-9.996643502773626	54.02948120456954	0.9429923401641304	0	0	0	-1.257423916790517	-0.07440209514771909	0.7436033021484313	21.14441950861015	-0.4464137072934815	5.970535282172609	6.92677727318106	97.72513509432781	0	0	13.10340665817605	-3.456150097235207	5.575298912913198	22.75385795411645	91.32838344795691	0	0
13.29999999999981	-1.286394540821308	-0.2610418606539218	26.40602353874718	0	0.9399999999999999	0	44.52961407936591	-9.999812762044908	-9.99672100046746	54.04045437284614	0.9431838580799325	0	0	0	44.52961407936591	-9.999812762044908	-9.99672100046746	54.04045437284614	0.9431838580799325	0	0	0	-1.151803520880879	-0.0544123703859655	0.8775975274617525	20.95696007682521	-0.6072468617074483	6.143288473350829	9.920650925685193	96.7838304200846	0	0	16.8889951804188	-4.422127923218978	6.765441597629511	22.32125503716154	89.46281042320069	0	0
13.3199999999998	-1.27751194634968	-0.2895369869189111	26.50857863041366	0	0.9399999999999999	0	44.53248353332121	-9.999815534316577	-9.996756655836789	54.04555371075834	0.9432728583161721	0	0	0	44.53248353332121	-9.999815534316577	-9.996756655836789	54.04555371075834	0.9432728583161721	0	0	0	-1.154445033579222	-0.08724221210089236	0.9148673454916224	22.5236684370194	-0.7569821430567252	5.663444725989653	10.59341488970052	97.17138543224475	0	0	18.84836727651709	-4.881197799163161	6.546012421411489	20.59198046797744	89.65736490364324	0	0
13.3399999999998	-1.215498300011737	-0.2545180721112512	26.70039597837103	0	0.9399999999999999	0	44.53974795696704	-9.999822357954356	-9.996845586499841	54.05852904050582	0.9434993205417975	0	0	0	44.53974795696704	-9.999822357954356	-9.996845586499841	54.05852904050582	0.9434993205417975	0	0	0	-1.08692624940253	-0.06777686582260578	0.7654174998526663	22.38349591855823	-0.8539998845325795	5.805410887057112	13.22288601810932	96.84810700915699	0	0	21.03353748569513	-5.633360018196703	6.349379961035551	23.448586585466	89.32295642911318	0	0
13.3599999999998	-1.153327300442022	-0.2172292677436821	26.69141728157924	0	0.9399999999999999	0	44.54478521588566	-9.99982696580733	-9.99690629554962	54.06760312405712	0.9436576931763689	0	0	0	44.54478521588566	-9.99982696580733	-9.99690629554962	54.06760312405712	0.9436576931763689	0	0	0	-1.014908465566298	-0.05981675707480764	0.8526278043160903	26.38980114291806	-1.637512694932096	4.610974777677305	12.14746276741083	97.43631356001957	0	0	23.52268189760688	-6.199443715385028	5.864870001956832	24.00249519241852	89.37162689483544	0	0
13.3799999999998	-1.123477101382924	-0.2113955084133935	26.97461469562773	0	0.9399999999999999	0	44.55077305076597	-9.99983240887682	-9.996978286567739	54.07831629419962	0.9438446732686818	0	0	0	44.55077305076597	-9.99983240887682	-9.996978286567739	54.07831629419962	0.9438446732686818	0	0	0	-0.9872418929046872	-0.05729333116720448	0.6885027638647025	26.35429790074146	-1.798940099930898	4.708493982442558	15.60089822257005	97.0151116313576	0	0	26.56902078060588	-6.796537001717633	5.36462551455758	24.4812539539083	89.50446509742181	0	0
13.3999999999998	-0.9650471079336523	-0.08781734738930061	27.0226824896487	0	0.9399999999999999	0	44.55578651649591	-9.999836899659057	-9.99703809153862	54.08727609041058	0.9440010512128708	0	0	0	44.55578651649591	-9.999836899659057	-9.99703809153862	54.08727609041058	0.9440010512128708	0	0	0	-0.7894747172843922	-0.0218497187424233	0.7575282293742884	31.79278173039787	-2.714066285821755	5.030764003282734	14.47360036950446	96.61738859319904	0	0	26.23211590025234	-6.834743114229989	5.543003988226642	26.34262221012968	89.27491415488484	0	0
13.4199999999998	-0.900317795857082	-0.03764519933224243	27.1846482102126	0	0.9399999999999999	0	44.56160838463057	-9.999841940527874	-9.997106144065198	54.09784708963365	0.9441855499545391	0	0	0	44.56160838463057	-9.999841940527874	-9.997106144065198	54.09784708963365	0.9441855499545391	0	0	0	-0.7016060696464688	-0.02069585639774379	0.6826227843663869	34.85012263611535	-3.164004473710772	5.482693255754024	16.04487633120173	95.90905938044681	0	0	29.49090437815926	-7.48845700439481	5.341763655926862	27.19122825458632	88.81362628766293	0	0
13.4399999999998	-0.5963766270364708	0.115501073683781	27.43036872877995	0	0.9399999999999999	0	44.56991346890724	-9.99984896358713	-9.997201928238944	54.11301330684418	0.9444502503799356	0	0	0	44.56991346890724	-9.99984896358713	-9.997201928238944	54.11301330684418	0.9444502503799356	0	0	0	-0.3624427580253615	-0.0163569759029845	0.7443466721045118	37.95542202695513	-3.799907181296897	5.630278927176962	17.50372410879137	95.05852965471705	0	0	32.49315991913327	-8.085976071583165	5.614356892606259	28.55508263380268	87.80273385425411	0	0
13.4599999999998	-0.4111388487641504	0.2237068287599236	27.45368609205372	0	0.9399999999999999	0	44.5741994285123	-9.999852511232532	-9.997250838190231	54.12079154644703	0.9445860062710143	0	0	0	44.5741994285123	-9.999852511232532	-9.997250838190231	54.12079154644703	0.9445860062710143	0	0	0	-0.1521012600912924	0.0083381413872583	0.8700637673526073	41.62178746321365	-4.113197790052842	5.311496547960749	13.6121027605196	95.34037429158012	0	0	32.21612670512638	-8.46962931108971	5.999988168358851	33.5157308277445	86.85873242028903	0	0
13.4799999999998	-0.2346158563533726	0.3263050470085633	27.64139809017293	0	0.9399999999999999	0	44.58331549735392	-9.999859923203566	-9.997353753119324	54.13746016802574	0.9448769285993317	0	0	0	44.58331549735392	-9.999859923203566	-9.997353753119324	54.13746016802574	0.9448769285993317	0	0	0	0.04906945128270049	0.02196968708546955	0.8439749622372692	45.62742467250515	-4.696213671341232	5.191246041682623	14.6891014394528	95.19578588885931	0	0	39.98158784384812	-9.364373146985612	5.653585526595908	31.36660762767924	86.20539727571052	0	0
13.4999999999998	-0.03922900712999987	0.4713601048639383	27.76005643141484	0	0.9399999999999999	0	44.59094930829137	-9.999865927590186	-9.997438347280633	54.15149142283109	0.9451218201938713	0	0	0	44.59094930829137	-9.999865927590186	-9.997438347280633	54.15149142283109	0.9451218201938713	0	0	0	0.2930794535763033	0.05108665521209856	0.8702147848208795	49.94885927545336	-5.246753178164349	5.045585167006406	15.76734570059549	95.13042329485658	0	0	44.18470089913581	-9.966461992259285	5.682712316782929	32.69165713352706	85.08545938463246	0	0
13.5199999999998	-0.02875612237033612	0.4591252818433715	27.85900825362294	0	0.9399999999999999	0	44.6030384837576	-9.999875455126952	-9.997572890747151	54.173205271439	0.9455007983453589	0	0	0	44.6030384837576	-9.999875455126952	-9.997572890747151	54.173205271439	0.9455007983453589	0	0	0	0.2861527691497883	0.05124075342438456	0.7787835854627094	55.15219854124936	-6.07074641210387	5.571382790102099	23.07611394214596	93.71607623960993	0	0	49.1804528997518	-10.6085012220506	5.466353332307649	33.58996278554034	84.52393327097042	0	0
13.5399999999998	0.1636396816723856	0.555262824675582	28.05330280858794	0	0.9399999999999999	0	44.61217745147323	-9.99988223697143	-9.997670992166267	54.19003541753182	0.9457945398082704	0	0	0	44.61217745147323	-9.99988223697143	-9.997670992166267	54.19003541753182	0.9457945398082704	0	0	0	0.4815212348921857	0.07801197550959728	0.9145756323492056	65.01136550223592	-6.723308077387914	6.398208550849529	20.06116939746584	92.25586889341855	0	0	59.42236435412696	-11.06783176393163	6.611044080121427	32.42107971550234	83.75216626798768	0	0
13.5599999999998	0.2775446409719541	0.5875615127092776	28.12330891851186	0	0.9399999999999999	0	44.61415471904269	-9.999883796467367	-9.997692965787355	54.19356405585611	0.9458561261651413	0	0	0	44.61415471904269	-9.999883796467367	-9.997692965787355	54.19356405585611	0.9458561261651413	0	0	0	0.5783190698679747	0.09682755359041302	0.998271120516397	70.14271082022812	-6.627623682960293	7.599502460987367	15.43858041190244	91.27440507088328	0	0	64.22155301360291	-10.83122521308067	9.517273271207438	28.86025335075132	81.18273820878828	0	0
13.5799999999998	0.2691877285258957	0.4882548848461872	28.19110148310363	0	0.9399999999999999	0	44.62823155157282	-9.999893706143341	-9.997840138463413	54.21936334452393	0.9463064086970672	0	0	0	44.62823155157282	-9.999893706143341	-9.997840138463413	54.21936334452393	0.9463064086970672	0	0	0	0.5140792729248664	0.0479647700758622	1.068326528213178	75.8333856098682	-7.229283144530515	10.37651083528455	23.93255578966196	88.0962337779543	0	0	69.88894966329953	-11.67599185076215	13.15132009500732	36.11973099765233	76.18630272022411	0	0
13.5999999999998	0.2241078709026999	0.4443093864038931	28.19014006582151	0	0.9399999999999999	0	44.63582750545764	-9.999898679825927	-9.997916298846965	54.23357439658682	0.946554438345737	0	0	0	44.63582750545764	-9.999898679825927	-9.997916298846965	54.23357439658682	0.946554438345737	0	0	0	0.455993315293285	0.02154146814268293	1.090022318602939	80.83931569157124	-6.819536251885657	12.8466459371829	26.04133570672795	85.64345480415126	0	0	75.04229288829174	-11.04690812783556	15.13202355714092	36.76846212384049	74.3280789886668	0	0
13.6199999999998	0.1750306042040492	0.3878953174203977	27.94176016344174	0	0.9399999999999999	0	44.64390460689612	-9.999903968023389	-9.997997350719135	54.24849524200737	0.9468148562255067	0	0	0	44.64390460689612	-9.999903968023389	-9.997997350719135	54.24849524200737	0.9468148562255067	0	0	0	0.373256046183963	0.007877278842271709	1.353930347990055	81.32841431578599	-7.605620601594291	12.98253516323806	31.76690249972648	85.17427837555611	0	0	80.0449002149556	-10.48070128326992	16.89277032472375	37.08180233247245	72.6084639581138	0	0
13.6399999999998	0.1749806944522144	0.3840328788578208	27.94490923552863	0	0.9399999999999999	0	44.64866642826482	-9.999906925219157	-9.998043706690513	54.25743350683445	0.9469708583761544	0	0	0	44.64866642826482	-9.999906925219157	-9.998043706690513	54.25743350683445	0.9469708583761544	0	0	0	0.3710304820166195	0.006709102074892565	1.346599534381595	85.49918509462142	-6.93415823439246	14.53033173418251	33.34875879315675	84.53781612168048	0	0	84.17721479659336	-9.530479323829663	18.25660384473297	35.45072453387754	71.31665875627321	0	0
